# xmcd CD database file
#
# Track frame offsets:
#	150
#	18902
#	36604
#	62252
#	84752
#	106502
#	135827
#	154952
#	165150
#	185251
#	206326
#	220203
#	250277
#	273227
#	292576
#	309602
#
# Disc length: 4423 seconds
#
# Revision: 1
# Processed by: cddbd v1.5.2PL0 Copyright (c) Steve Scherf et al.
# Submitted via: CDex 1.70beta2
#
DISCID=c1114510
DTITLE=Various Artist - Baileys Jazz Date
DYEAR=2000
DGENRE=Jazz
TTITLE0=Don't Look Back
TTITLE1=Happening At Once
TTITLE2=Seven Come Five
TTITLE3=Sista's Blues (Blues Is What I Am)
TTITLE4=Friday Night At The Cadillac Club
TTITLE5=The Will
TTITLE6=Find It Where It Is
TTITLE7=Cuban Hideaway
TTITLE8=Blues In Fat Tues
TTITLE9=Amphora
TTITLE10=Song For Christina
TTITLE11=Duff's Blues
TTITLE12=Ocean Sands
TTITLE13=A Pond Beneath The Moon
TTITLE14=The Lord Is Always With Them
TTITLE15=The Slow Lane
EXTD=YEAR: 2000
EXTT0=
EXTT1=
EXTT2=
EXTT3=
EXTT4=
EXTT5=
EXTT6=
EXTT7=
EXTT8=
EXTT9=
EXTT10=
EXTT11=
EXTT12=
EXTT13=
EXTT14=
EXTT15=
PLAYORDER=
